<?xml version="1.0" standalone="no"?>
<!DOCTYPE svg PUBLIC "-//W3C//DTD SVG 20010904//EN"
 "http://www.w3.org/TR/2001/REC-SVG-20010904/DTD/svg10.dtd">
<svg version="1.0" xmlns="http://www.w3.org/2000/svg"
 width="281.000000pt" height="281.000000pt" viewBox="0 0 281.000000 281.000000"
 preserveAspectRatio="xMidYMid meet">

<g transform="translate(0.000000,281.000000) scale(0.100000,-0.100000)"
fill="#000000" stroke="none">
<path d="M773 2387 c-80 -87 -143 -192 -182 -308 -45 -130 -53 -179 -51 -306
1 -163 27 -282 85 -399 98 -200 274 -363 463 -431 135 -48 282 -64 405 -44 58
10 64 2 46 -60 -22 -82 -27 -109 -20 -114 13 -8 130 53 221 116 97 66 234 202
276 275 28 47 28 44 8 189 -13 97 -68 254 -135 387 -17 35 -32 64 -34 66 -1 1
-24 -9 -51 -22 -27 -14 -80 -30 -119 -36 -136 -21 -186 -40 -237 -91 -61 -61
-99 -137 -106 -212 -4 -50 -2 -62 13 -73 32 -24 52 -1 65 74 21 127 116 222
220 222 30 0 31 -1 28 -42 -3 -40 -6 -44 -43 -56 -75 -24 -113 -77 -130 -177
-11 -65 -30 -92 -81 -111 -45 -17 -48 -17 -83 2 -53 28 -81 76 -81 139 0 101
56 220 143 303 79 74 137 98 282 117 56 8 116 30 126 47 4 6 0 22 -8 34 -12
20 -19 22 -35 13 -11 -6 -66 -17 -121 -25 -140 -20 -228 -62 -312 -150 -45
-46 -72 -86 -95 -139 -18 -41 -38 -75 -44 -75 -6 1 -22 7 -36 15 -14 8 -35 14
-47 15 -20 0 -23 5 -23 45 l0 45 38 0 c35 1 39 4 77 69 48 81 148 174 230 215
35 17 95 34 149 43 50 8 104 18 119 21 l28 7 -73 75 c-95 97 -218 195 -313
249 -152 87 -360 161 -452 161 -38 0 -46 -5 -110 -73z m317 -97 c0 -39 -1 -41
-55 -65 -60 -26 -85 -63 -85 -126 0 -88 57 -131 190 -144 85 -8 140 -27 140
-49 0 -23 -50 -56 -85 -56 -54 0 -198 30 -228 48 -25 15 -52 49 -86 107 -21
35 -6 -60 16 -102 33 -62 78 -91 168 -106 91 -15 103 -30 61 -72 -29 -29 -60
-32 -136 -9 -74 22 -158 106 -189 189 -43 114 -13 262 71 342 48 46 126 82
176 83 l42 0 0 -40z"/>
<path d="M1303 540 c2 -38 7 -47 35 -67 19 -12 55 -25 80 -28 88 -12 82 -1 82
-145 0 -119 2 -130 20 -140 28 -15 31 -4 33 138 1 66 5 123 9 127 4 4 37 14
75 21 78 17 123 51 123 94 0 40 -13 44 -24 8 -17 -53 -50 -62 -211 -62 -162 1
-198 12 -214 67 -10 31 -10 31 -8 -13z"/>
<path d="M960 315 c0 -136 1 -145 19 -145 10 0 22 7 25 16 6 16 8 16 24 0 37
-33 101 -16 127 34 50 97 -41 215 -121 155 -30 -23 -34 -18 -34 35 0 43 -3 50
-20 50 -19 0 -20 -7 -20 -145z m144 13 c32 -46 8 -118 -39 -118 -26 0 -65 42
-65 70 0 28 39 70 65 70 13 0 31 -10 39 -22z"/>
<path d="M2530 315 l0 -145 25 0 c23 0 25 4 25 40 0 22 4 40 9 40 4 0 21 -18
36 -40 21 -31 34 -40 56 -40 34 0 37 10 8 36 -12 10 -30 32 -41 47 l-20 28 41
49 c23 27 41 51 41 54 0 3 -12 6 -27 6 -21 -1 -36 -12 -63 -48 l-35 -47 -3 83
c-3 80 -3 82 -27 82 l-25 0 0 -145z"/>
<path d="M102 374 c-27 -19 -29 -64 -4 -87 9 -8 31 -19 47 -23 55 -13 70 -35
34 -54 -16 -9 -26 -8 -45 5 -14 9 -35 15 -47 13 -22 -3 -22 -3 5 -31 52 -52
152 -28 146 36 -3 32 -11 38 -83 69 -16 7 -30 20 -30 28 0 19 31 25 59 12 41
-20 56 -22 56 -7 0 22 -50 55 -84 55 -17 0 -42 -7 -54 -16z"/>
<path d="M323 375 c-51 -36 -54 -147 -6 -185 30 -24 85 -26 103 -5 7 8 16 15
21 15 5 0 9 -7 9 -15 0 -8 9 -15 20 -15 19 0 20 7 20 110 0 103 -1 110 -20
110 -11 0 -20 -7 -20 -15 0 -19 -9 -19 -34 0 -26 19 -66 19 -93 0z m110 -57
c32 -43 4 -108 -48 -108 -50 0 -73 82 -34 121 26 26 57 21 82 -13z"/>
<path d="M557 383 c-4 -3 -7 -53 -7 -110 l0 -103 25 0 c24 0 25 2 25 73 0 62
3 77 20 92 16 15 26 17 48 9 26 -9 27 -12 30 -92 3 -80 4 -82 27 -82 24 0 25
2 25 73 0 77 15 107 53 107 34 0 47 -29 47 -106 0 -72 1 -74 25 -74 24 0 25 2
25 69 0 78 -14 127 -40 141 -29 15 -66 12 -91 -9 -23 -19 -24 -19 -48 0 -27
22 -62 24 -94 8 -16 -9 -22 -9 -25 0 -4 12 -35 15 -45 4z"/>
<path d="M1237 364 c-66 -65 -29 -194 56 -194 18 0 43 7 55 16 20 14 22 14 22
0 0 -10 9 -16 25 -16 l25 0 0 110 0 110 -25 0 c-16 0 -25 -6 -25 -16 0 -14 -2
-14 -22 0 -34 24 -81 20 -111 -10z m113 -36 c26 -28 26 -72 0 -98 -25 -25 -55
-25 -80 0 -39 39 -12 120 40 120 10 0 28 -10 40 -22z"/>
<path d="M1650 363 c-39 -35 -49 -87 -26 -135 30 -63 117 -80 163 -30 l25 27
-27 3 c-15 2 -32 -1 -38 -7 -17 -17 -52 -13 -71 8 -28 31 -11 41 70 41 l76 0
-7 33 c-9 45 -57 87 -100 87 -24 0 -44 -9 -65 -27z m110 -28 c23 -28 4 -45
-50 -45 -41 0 -50 3 -50 18 0 10 5 23 12 30 17 17 73 15 88 -3z"/>
<path d="M1860 280 l0 -110 25 0 c24 0 25 2 25 69 0 74 14 101 51 101 14 0 19
7 19 25 0 28 -20 33 -44 10 -8 -8 -17 -15 -20 -15 -3 0 -6 7 -6 15 0 9 -9 15
-25 15 l-25 0 0 -110z"/>
<path d="M2020 279 c0 -108 0 -110 22 -107 20 3 22 9 22 74 1 78 14 104 52
104 37 0 54 -36 54 -112 0 -61 2 -68 20 -68 19 0 20 7 20 89 0 85 -1 91 -26
110 -30 24 -64 27 -95 9 -17 -10 -23 -10 -26 0 -3 6 -13 12 -24 12 -18 0 -19
-8 -19 -111z"/>
<path d="M2304 375 c-52 -36 -57 -141 -9 -182 31 -27 81 -30 107 -7 16 16 18
16 24 0 3 -9 15 -16 25 -16 17 0 19 9 19 110 0 101 -2 110 -19 110 -10 0 -22
-7 -25 -16 -5 -14 -8 -14 -28 0 -28 20 -67 20 -94 1z m99 -42 c28 -31 30 -66
7 -96 -41 -51 -100 -22 -100 50 0 53 60 82 93 46z"/>
</g>
</svg>
