<?xml version="1.0" encoding="UTF-8"?>
<!DOCTYPE svg PUBLIC "-//W3C//DTD SVG 1.1//EN" "http://www.w3.org/Graphics/SVG/1.1/DTD/svg11.dtd">
<svg xmlns="http://www.w3.org/2000/svg" version="1.1" width="50px" height="50px" style="shape-rendering:geometricPrecision; text-rendering:geometricPrecision; image-rendering:optimizeQuality; fill-rule:evenodd; clip-rule:evenodd" xmlns:xlink="http://www.w3.org/1999/xlink">
<g><path style="opacity:0.978" fill="#0fa2fd" d="M 36.5,29.5 C 36.5107,25.5357 35.5107,21.869 33.5,18.5C 37.0211,13.0034 35.6878,9.83676 29.5,9C 32.938,10.4449 33.2714,12.2783 30.5,14.5C 29.3747,12.8712 28.0414,11.3712 26.5,10C 22.7415,8.12073 19.0748,6.28739 15.5,4.5C 23.9834,-0.427975 31.4834,0.905359 38,8.5C 41.6381,15.8952 41.1381,22.8952 36.5,29.5 Z"/></g>
<g><path style="opacity:0.999" fill="#1d7bfd" d="M 15.5,4.5 C 19.0748,6.28739 22.7415,8.12073 26.5,10C 28.0414,11.3712 29.3747,12.8712 30.5,14.5C 26.352,14.574 23.0187,16.2406 20.5,19.5C 20.1667,19.5 19.8333,19.5 19.5,19.5C 18.4125,18.0002 17.0792,16.6669 15.5,15.5C 17.4744,16.4333 19.8077,16.4333 22.5,15.5C 20.6587,14.7696 18.8254,14.1029 17,13.5C 16.2888,11.6332 16.7888,10.1332 18.5,9C 14.6803,8.65771 13.0136,10.491 13.5,14.5C 11.8333,14.5 10.1667,14.5 8.5,14.5C 9.35935,10.1081 11.6927,6.77474 15.5,4.5 Z"/></g>
<g><path style="opacity:0.99" fill="#dee9ff" d="M 19.5,19.5 C 16.3095,19.3129 14.3095,17.6462 13.5,14.5C 13.0136,10.491 14.6803,8.65771 18.5,9C 16.7888,10.1332 16.2888,11.6332 17,13.5C 18.8254,14.1029 20.6587,14.7696 22.5,15.5C 19.8077,16.4333 17.4744,16.4333 15.5,15.5C 17.0792,16.6669 18.4125,18.0002 19.5,19.5 Z"/></g>
<g><path style="opacity:0.986" fill="#0e54fa" d="M 8.5,14.5 C 10.1667,14.5 11.8333,14.5 13.5,14.5C 14.3095,17.6462 16.3095,19.3129 19.5,19.5C 19.8333,19.5 20.1667,19.5 20.5,19.5C 19.375,20.6522 19.375,21.6522 20.5,22.5C 20.9887,23.9952 21.6554,25.3285 22.5,26.5C 23.8333,27.8333 25.1667,27.8333 26.5,26.5C 27.8333,29.1667 27.8333,31.8333 26.5,34.5C 23.9407,34.8016 21.6074,34.4682 19.5,33.5C 20.0719,25.6161 16.4053,21.9494 8.5,22.5C 8.5,19.8333 8.5,17.1667 8.5,14.5 Z"/></g>
<g><path style="opacity:0.98" fill="#d8eaff" d="M 33.5,18.5 C 27.2932,17.8881 24.1265,20.5548 24,26.5C 24.7979,23.7607 26.4645,21.7607 29,20.5C 29.2703,21.9323 28.6036,22.9323 27,23.5C 26.5172,24.448 26.3505,25.448 26.5,26.5C 25.1667,27.8333 23.8333,27.8333 22.5,26.5C 22.7228,20.2764 26.0561,16.943 32.5,16.5C 27.2923,15.77 23.2923,17.77 20.5,22.5C 19.375,21.6522 19.375,20.6522 20.5,19.5C 23.0187,16.2406 26.352,14.574 30.5,14.5C 33.2714,12.2783 32.938,10.4449 29.5,9C 35.6878,9.83676 37.0211,13.0034 33.5,18.5 Z"/></g>
<g><path style="opacity:0.986" fill="#317bfd" d="M 22.5,26.5 C 21.6554,25.3285 20.9887,23.9952 20.5,22.5C 23.2923,17.77 27.2923,15.77 32.5,16.5C 26.0561,16.943 22.7228,20.2764 22.5,26.5 Z"/></g>
<g><path style="opacity:0.97" fill="#0e7bfd" d="M 33.5,18.5 C 35.5107,21.869 36.5107,25.5357 36.5,29.5C 34.6533,34.0124 31.3199,36.679 26.5,37.5C 26.5,36.5 26.5,35.5 26.5,34.5C 27.8333,31.8333 27.8333,29.1667 26.5,26.5C 26.3505,25.448 26.5172,24.448 27,23.5C 28.6036,22.9323 29.2703,21.9323 29,20.5C 26.4645,21.7607 24.7979,23.7607 24,26.5C 24.1265,20.5548 27.2932,17.8881 33.5,18.5 Z"/></g>
<g><path style="opacity:0.992" fill="#002dfc" d="M 8.5,22.5 C 16.4053,21.9494 20.0719,25.6161 19.5,33.5C 14.1887,31.522 10.522,27.8554 8.5,22.5 Z"/></g>
<g><path style="opacity:0.346" fill="#012efa" d="M 31.5,42.5 C 30.8333,42.5 30.1667,42.5 29.5,42.5C 28.8333,42.5 28.5,42.8333 28.5,43.5C 28.5,44.8333 28.5,46.1667 28.5,47.5C 27.391,47.4431 26.391,47.1098 25.5,46.5C 25.5,46.1667 25.5,45.8333 25.5,45.5C 26.8333,44.8333 26.8333,44.1667 25.5,43.5C 24.791,42.596 23.791,42.2627 22.5,42.5C 22.3505,41.448 22.5172,40.448 23,39.5C 25.8007,40.7946 28.6341,40.7946 31.5,39.5C 32.5624,40.4246 32.5624,41.4246 31.5,42.5 Z"/></g>
<g><path style="opacity:0.493" fill="#0078fa" d="M 22.5,42.5 C 23.791,42.2627 24.791,42.596 25.5,43.5C 25.5,44.1667 25.5,44.8333 25.5,45.5C 25.5,45.8333 25.5,46.1667 25.5,46.5C 22.0381,47.4816 18.3714,47.815 14.5,47.5C 14.4042,43.6893 13.7376,43.6893 12.5,47.5C 11.2624,43.6893 10.5958,43.6893 10.5,47.5C 7.16667,47.5 3.83333,47.5 0.5,47.5C 0.5,45.8333 0.5,44.1667 0.5,42.5C 8.00332,42.2873 15.3366,42.2873 22.5,42.5 Z"/></g>
<g><path style="opacity:0.468" fill="#0378f8" d="M 28.5,47.5 C 28.5,46.1667 28.5,44.8333 28.5,43.5C 29.1667,43.5 29.5,43.1667 29.5,42.5C 30.1667,42.5 30.8333,42.5 31.5,42.5C 36.5782,43.4353 41.4116,43.102 46,41.5C 46.772,41.6448 47.4387,41.9781 48,42.5C 48.4935,44.1341 48.6602,45.8008 48.5,47.5C 45.1667,47.5 41.8333,47.5 38.5,47.5C 38.4042,43.6893 37.7376,43.6893 36.5,47.5C 35.2624,43.6893 34.5958,43.6893 34.5,47.5C 32.5,47.5 30.5,47.5 28.5,47.5 Z"/></g>
</svg>
